<svg width="136" height="27" viewBox="0 0 136 27" fill="none" xmlns="http://www.w3.org/2000/svg">
<path d="M29.244 20L24.402 14.402V20H22.35V7.49H24.402V13.196L29.262 7.49H31.836L26.4 13.754L31.926 20H29.244ZM33.0566 14.996C33.0566 14 33.2606 13.118 33.6686 12.35C34.0886 11.582 34.6526 10.988 35.3606 10.568C36.0806 10.136 36.8726 9.92 37.7366 9.92C38.5166 9.92 39.1946 10.076 39.7706 10.388C40.3586 10.688 40.8266 11.066 41.1746 11.522V10.082H43.2446V20H41.1746V18.524C40.8266 18.992 40.3526 19.382 39.7526 19.694C39.1526 20.006 38.4686 20.162 37.7006 20.162C36.8486 20.162 36.0686 19.946 35.3606 19.514C34.6526 19.07 34.0886 18.458 33.6686 17.678C33.2606 16.886 33.0566 15.992 33.0566 14.996ZM41.1746 15.032C41.1746 14.348 41.0306 13.754 40.7426 13.25C40.4666 12.746 40.1006 12.362 39.6446 12.098C39.1886 11.834 38.6966 11.702 38.1686 11.702C37.6406 11.702 37.1486 11.834 36.6926 12.098C36.2366 12.35 35.8646 12.728 35.5766 13.232C35.3006 13.724 35.1626 14.312 35.1626 14.996C35.1626 15.68 35.3006 16.28 35.5766 16.796C35.8646 17.312 36.2366 17.708 36.6926 17.984C37.1606 18.248 37.6526 18.38 38.1686 18.38C38.6966 18.38 39.1886 18.248 39.6446 17.984C40.1006 17.72 40.4666 17.336 40.7426 16.832C41.0306 16.316 41.1746 15.716 41.1746 15.032ZM47.9918 11.558C48.3398 11.078 48.8138 10.688 49.4138 10.388C50.0258 10.076 50.7038 9.92 51.4478 9.92C52.3238 9.92 53.1158 10.13 53.8238 10.55C54.5318 10.97 55.0898 11.57 55.4978 12.35C55.9058 13.118 56.1098 14 56.1098 14.996C56.1098 15.992 55.9058 16.886 55.4978 17.678C55.0898 18.458 54.5258 19.07 53.8058 19.514C53.0978 19.946 52.3118 20.162 51.4478 20.162C50.6798 20.162 49.9958 20.012 49.3958 19.712C48.8078 19.412 48.3398 19.028 47.9918 18.56V20H45.9398V6.68H47.9918V11.558ZM54.0218 14.996C54.0218 14.312 53.8778 13.724 53.5898 13.232C53.3138 12.728 52.9418 12.35 52.4738 12.098C52.0178 11.834 51.5258 11.702 50.9978 11.702C50.4818 11.702 49.9898 11.834 49.5218 12.098C49.0658 12.362 48.6938 12.746 48.4058 13.25C48.1298 13.754 47.9918 14.348 47.9918 15.032C47.9918 15.716 48.1298 16.316 48.4058 16.832C48.6938 17.336 49.0658 17.72 49.5218 17.984C49.9898 18.248 50.4818 18.38 50.9978 18.38C51.5258 18.38 52.0178 18.248 52.4738 17.984C52.9418 17.708 53.3138 17.312 53.5898 16.796C53.8778 16.28 54.0218 15.68 54.0218 14.996ZM67.2291 14.798C67.2291 15.17 67.2051 15.506 67.1571 15.806H59.5791C59.6391 16.598 59.9331 17.234 60.4611 17.714C60.9891 18.194 61.6371 18.434 62.4051 18.434C63.5091 18.434 64.2891 17.972 64.7451 17.048H66.9591C66.6591 17.96 66.1131 18.71 65.3211 19.298C64.5411 19.874 63.5691 20.162 62.4051 20.162C61.4571 20.162 60.6051 19.952 59.8491 19.532C59.1051 19.1 58.5171 18.5 58.0851 17.732C57.6651 16.952 57.4551 16.052 57.4551 15.032C57.4551 14.012 57.6591 13.118 58.0671 12.35C58.4871 11.57 59.0691 10.97 59.8131 10.55C60.5691 10.13 61.4331 9.92 62.4051 9.92C63.3411 9.92 64.1751 10.124 64.9071 10.532C65.6391 10.94 66.2091 11.516 66.6171 12.26C67.0251 12.992 67.2291 13.838 67.2291 14.798ZM65.0871 14.15C65.0751 13.394 64.8051 12.788 64.2771 12.332C63.7491 11.876 63.0951 11.648 62.3151 11.648C61.6071 11.648 61.0011 11.876 60.4971 12.332C59.9931 12.776 59.6931 13.382 59.5971 14.15H65.0871ZM78.3384 14.798C78.3384 15.17 78.3144 15.506 78.2664 15.806H70.6884C70.7484 16.598 71.0424 17.234 71.5704 17.714C72.0984 18.194 72.7464 18.434 73.5144 18.434C74.6184 18.434 75.3984 17.972 75.8544 17.048H78.0684C77.7684 17.96 77.2224 18.71 76.4304 19.298C75.6504 19.874 74.6784 20.162 73.5144 20.162C72.5664 20.162 71.7144 19.952 70.9584 19.532C70.2144 19.1 69.6264 18.5 69.1944 17.732C68.7744 16.952 68.5644 16.052 68.5644 15.032C68.5644 14.012 68.7684 13.118 69.1764 12.35C69.5964 11.57 70.1784 10.97 70.9224 10.55C71.6784 10.13 72.5424 9.92 73.5144 9.92C74.4504 9.92 75.2844 10.124 76.0164 10.532C76.7484 10.94 77.3184 11.516 77.7264 12.26C78.1344 12.992 78.3384 13.838 78.3384 14.798ZM76.1964 14.15C76.1844 13.394 75.9144 12.788 75.3864 12.332C74.8584 11.876 74.2044 11.648 73.4244 11.648C72.7164 11.648 72.1104 11.876 71.6064 12.332C71.1024 12.776 70.8024 13.382 70.7064 14.15H76.1964ZM82.4098 11.522C82.7098 11.018 83.1058 10.628 83.5978 10.352C84.1018 10.064 84.6958 9.92 85.3798 9.92V12.044H84.8578C84.0538 12.044 83.4418 12.248 83.0218 12.656C82.6138 13.064 82.4098 13.772 82.4098 14.78V20H80.3578V10.082H82.4098V11.522ZM99.3038 7.49V9.164H93.9938V12.854H98.1338V14.528H93.9938V20H91.9418V7.49H99.3038ZM105.507 20.162C104.571 20.162 103.725 19.952 102.969 19.532C102.213 19.1 101.619 18.5 101.187 17.732C100.755 16.952 100.539 16.052 100.539 15.032C100.539 14.024 100.761 13.13 101.205 12.35C101.649 11.57 102.255 10.97 103.023 10.55C103.791 10.13 104.649 9.92 105.597 9.92C106.545 9.92 107.403 10.13 108.171 10.55C108.939 10.97 109.545 11.57 109.989 12.35C110.433 13.13 110.655 14.024 110.655 15.032C110.655 16.04 110.427 16.934 109.971 17.714C109.515 18.494 108.891 19.1 108.099 19.532C107.319 19.952 106.455 20.162 105.507 20.162ZM105.507 18.38C106.035 18.38 106.527 18.254 106.983 18.002C107.451 17.75 107.829 17.372 108.117 16.868C108.405 16.364 108.549 15.752 108.549 15.032C108.549 14.312 108.411 13.706 108.135 13.214C107.859 12.71 107.493 12.332 107.037 12.08C106.581 11.828 106.089 11.702 105.561 11.702C105.033 11.702 104.541 11.828 104.085 12.08C103.641 12.332 103.287 12.71 103.023 13.214C102.759 13.706 102.627 14.312 102.627 15.032C102.627 16.1 102.897 16.928 103.437 17.516C103.989 18.092 104.679 18.38 105.507 18.38ZM116.986 20.162C116.05 20.162 115.204 19.952 114.448 19.532C113.692 19.1 113.098 18.5 112.666 17.732C112.234 16.952 112.018 16.052 112.018 15.032C112.018 14.024 112.24 13.13 112.684 12.35C113.128 11.57 113.734 10.97 114.502 10.55C115.27 10.13 116.128 9.92 117.076 9.92C118.024 9.92 118.882 10.13 119.65 10.55C120.418 10.97 121.024 11.57 121.468 12.35C121.912 13.13 122.134 14.024 122.134 15.032C122.134 16.04 121.906 16.934 121.45 17.714C120.994 18.494 120.37 19.1 119.578 19.532C118.798 19.952 117.934 20.162 116.986 20.162ZM116.986 18.38C117.514 18.38 118.006 18.254 118.462 18.002C118.93 17.75 119.308 17.372 119.596 16.868C119.884 16.364 120.028 15.752 120.028 15.032C120.028 14.312 119.89 13.706 119.614 13.214C119.338 12.71 118.972 12.332 118.516 12.08C118.06 11.828 117.568 11.702 117.04 11.702C116.512 11.702 116.02 11.828 115.564 12.08C115.12 12.332 114.766 12.71 114.502 13.214C114.238 13.706 114.106 14.312 114.106 15.032C114.106 16.1 114.376 16.928 114.916 17.516C115.468 18.092 116.158 18.38 116.986 18.38ZM123.479 14.996C123.479 14 123.683 13.118 124.091 12.35C124.511 11.582 125.075 10.988 125.783 10.568C126.503 10.136 127.301 9.92 128.177 9.92C128.825 9.92 129.461 10.064 130.085 10.352C130.721 10.628 131.225 11 131.597 11.468V6.68H133.667V20H131.597V18.506C131.261 18.986 130.793 19.382 130.193 19.694C129.605 20.006 128.927 20.162 128.159 20.162C127.295 20.162 126.503 19.946 125.783 19.514C125.075 19.07 124.511 18.458 124.091 17.678C123.683 16.886 123.479 15.992 123.479 14.996ZM131.597 15.032C131.597 14.348 131.453 13.754 131.165 13.25C130.889 12.746 130.523 12.362 130.067 12.098C129.611 11.834 129.119 11.702 128.591 11.702C128.063 11.702 127.571 11.834 127.115 12.098C126.659 12.35 126.287 12.728 125.999 13.232C125.723 13.724 125.585 14.312 125.585 14.996C125.585 15.68 125.723 16.28 125.999 16.796C126.287 17.312 126.659 17.708 127.115 17.984C127.583 18.248 128.075 18.38 128.591 18.38C129.119 18.38 129.611 18.248 130.067 17.984C130.523 17.72 130.889 17.336 131.165 16.832C131.453 16.316 131.597 15.716 131.597 15.032Z" fill="white"/>
<circle cx="8" cy="13" r="8" fill="#FF922C"/>
<path d="M11 16.5C11 14.8431 8 9 8 9C8 9 5 14.8431 5 16.5C5 18.1569 6.34315 19.5 8 19.5C9.65685 19.5 11 18.1569 11 16.5Z" fill="white"/>
</svg>
