<svg width="28" height="28" viewBox="0 0 28 28" fill="none" xmlns="http://www.w3.org/2000/svg">
<g filter="url(#filter0_d_1_274)">
<path d="M15 9H13V13H9V15H13V19H15V15H19V13H15V9ZM14 4C8.48 4 4 8.48 4 14C4 19.52 8.48 24 14 24C19.52 24 24 19.52 24 14C24 8.48 19.52 4 14 4ZM14 22C9.59 22 6 18.41 6 14C6 9.59 9.59 6 14 6C18.41 6 22 9.59 22 14C22 18.41 18.41 22 14 22Z" fill="#FF922C"/>
</g>
<defs>
<filter id="filter0_d_1_274" x="0" y="0" width="28" height="28" filterUnits="userSpaceOnUse" color-interpolation-filters="sRGB">
<feFlood flood-opacity="0" result="BackgroundImageFix"/>
<feColorMatrix in="SourceAlpha" type="matrix" values="0 0 0 0 0 0 0 0 0 0 0 0 0 0 0 0 0 0 127 0" result="hardAlpha"/>
<feOffset/>
<feGaussianBlur stdDeviation="2"/>
<feComposite in2="hardAlpha" operator="out"/>
<feColorMatrix type="matrix" values="0 0 0 0 0 0 0 0 0 0 0 0 0 0 0 0 0 0 0.25 0"/>
<feBlend mode="normal" in2="BackgroundImageFix" result="effect1_dropShadow_1_274"/>
<feBlend mode="normal" in="SourceGraphic" in2="effect1_dropShadow_1_274" result="shape"/>
</filter>
</defs>
</svg>
