<svg width="22" height="22" viewBox="0 0 22 22" fill="none" xmlns="http://www.w3.org/2000/svg">
<path d="M15.6806 13.6801H14.7031L14.3566 13.346C15.5692 11.9354 16.2993 10.1041 16.2993 8.11201C16.2993 3.66993 12.6986 0.0692444 8.25651 0.0692444C3.81443 0.0692444 0.213745 3.66993 0.213745 8.11201C0.213745 12.5541 3.81443 16.1548 8.25651 16.1548C10.2486 16.1548 12.0799 15.4247 13.4905 14.2121L13.8246 14.5586V15.5361L20.0113 21.7105L21.855 19.8668L15.6806 13.6801V13.6801ZM8.25651 13.6801C5.17551 13.6801 2.68844 11.193 2.68844 8.11201C2.68844 5.03101 5.17551 2.54394 8.25651 2.54394C11.3375 2.54394 13.8246 5.03101 13.8246 8.11201C13.8246 11.193 11.3375 13.6801 8.25651 13.6801Z" fill="white"/>
</svg>
